<?xml version="1.0" encoding="utf-8"?>
<!-- Generator: Adobe Illustrator 27.4.1, SVG Export Plug-In . SVG Version: 6.00 Build 0)  -->
<svg version="1.1" id="Layer_1" xmlns="http://www.w3.org/2000/svg" xmlns:xlink="http://www.w3.org/1999/xlink" x="0px" y="0px"
	 viewBox="0 0 2000 2000" style="enable-background:new 0 0 2000 2000;" xml:space="preserve">
<style type="text/css">
	.st0{fill:#3F3E40;}
	.st1{fill:#004438;}
	.st2{fill:url(#SVGID_1_);}
	.st3{fill:url(#SVGID_00000132768973469986769900000013672254826777973636_);}
	.st4{fill:#FFFFFF;}
	.st5{fill:url(#SVGID_00000062887458316335075820000007590022318078020287_);}
	.st6{fill:url(#SVGID_00000119097704610586573090000012114115375645348753_);}
</style>
<g>
	<g>
		<path class="st4" d="M1109.3,941.8v119.7H1076v-66l-22.6,66h-27.8l-22.8-66.6v66.6h-33.3V941.8h40.2l30.1,77.8l29.4-77.8H1109.3z"
			/>
		<path class="st4" d="M1216.1,1061.5l-37.5-52.5v52.5h-33.3V941.8h33.3v51.6l37.2-51.6h38.4l-44,58.1l46.2,61.6H1216.1z"/>
		<path class="st4" d="M1378.6,1010.5c4.1,5.4,6.2,11.5,6.2,18.4c0,10.2-3.5,18.2-10.5,23.9c-7,5.8-16.9,8.7-29.5,8.7h-59.3V941.8
			h57.4c12.2,0,21.8,2.7,28.8,8.2c7,5.4,10.4,13.1,10.4,22.9c0,7-1.8,12.9-5.5,17.6c-3.7,4.7-8.6,7.9-14.7,9.6
			C1368.9,1001.6,1374.5,1005.1,1378.6,1010.5z M1318.8,989.4h16.8c8.4,0,12.6-3.5,12.6-10.4c0-7.1-4.2-10.7-12.6-10.7h-16.8V989.4z
			 M1350.7,1024.2c0-3.6-1.1-6.4-3.3-8.3c-2.2-1.9-5.3-2.9-9.4-2.9h-19.2v21.7h19.4C1346.5,1034.7,1350.7,1031.2,1350.7,1024.2z"/>
		<path class="st4" d="M1499.1,941.8v119.7h-33.3V941.8H1499.1z"/>
		<path class="st4" d="M1625.2,941.8v26.5h-31.9v93.2H1560v-93.2h-31.6v-26.5H1625.2z"/>
	</g>
	<path class="st4" d="M715,1027.9c-5.6,26.6-18.7,51.8-39.3,72.4c-53.8,53.7-142.8,55.8-199,4.6c-61.2-55.8-62.9-150.8-4.9-208.8
		c20.7-20.7,46.2-33.8,72.9-39.3c17.1-3.5,29.1-18.9,29.1-36.4v-0.1c0-23.3-21.1-41.4-43.9-36.8c-47.6,9.7-92.6,35.3-126.4,76.9
		c-64.3,79-64.8,194.4-1.2,273.9c83.1,103.7,235,109.9,326.3,18.6c31.4-31.4,51.3-69.9,59.6-110.4c4.7-23-13.3-44.5-36.7-44.5l0,0
		C733.8,998.2,718.6,1010.6,715,1027.9z"/>
	
		<linearGradient id="SVGID_1_" gradientUnits="userSpaceOnUse" x1="1301.4626" y1="902.0053" x2="1321.2902" y2="675.3745" gradientTransform="matrix(0.7071 -0.7071 0.7071 0.7071 -791.1974 1247.4572)">
		<stop  offset="0.1365" style="stop-color:#DB7CEF"/>
		<stop  offset="0.864" style="stop-color:#FFE954"/>
	</linearGradient>
	<path class="st2" d="M749.8,972.1l0.2,0c22.9-3.6,37.5-27.2,29.6-49C769,894,752,866.7,728.6,843.3c-23.8-23.8-51.7-41-81.4-51.5
		c-21.9-7.8-45.4,7-48.8,30l0,0.1c-2.6,17.5,7.3,34.5,23.9,40.4c19.5,6.9,37.9,18.1,53.5,33.8c15.3,15.3,26.4,33.2,33.3,52.3
		C715.2,965,732.4,974.9,749.8,972.1z"/>
</g>
</svg>
