<?xml version="1.0" encoding="utf-8"?>
<!-- Generator: Adobe Illustrator 27.4.1, SVG Export Plug-In . SVG Version: 6.00 Build 0)  -->
<svg version="1.1" id="Layer_1" xmlns="http://www.w3.org/2000/svg" xmlns:xlink="http://www.w3.org/1999/xlink" x="0px" y="0px"
	 viewBox="0 0 2000 2000" style="enable-background:new 0 0 2000 2000;" xml:space="preserve">
<style type="text/css">
	.st0{fill:#3F3E40;}
	.st1{fill:#004438;}
	.st2{fill:url(#SVGID_1_);}
	.st3{fill:url(#SVGID_00000124152391003545692690000009736409264773511556_);}
	.st4{fill:#FFFFFF;}
	.st5{fill:url(#SVGID_00000024704858480202940190000011332887071039970749_);}
	.st6{fill:url(#SVGID_00000065793322364479514330000001957210213928706716_);}
</style>
<g>
	<g>
		<path class="st0" d="M837.6,1191.3v100.6h-28v-55.5l-19,55.5h-23.4l-19.1-55.9v55.9h-28v-100.6H754l25.3,65.3l24.7-65.3H837.6z"/>
		<path class="st0" d="M927.3,1291.9l-31.5-44.1v44.1h-28v-100.6h28v43.4l31.2-43.4h32.2l-37,48.8l38.8,51.8H927.3z"/>
		<path class="st0" d="M1063.9,1249c3.5,4.5,5.2,9.7,5.2,15.5c0,8.6-2.9,15.3-8.8,20.1c-5.9,4.8-14.2,7.3-24.8,7.3h-49.8v-100.6
			h48.2c10.3,0,18.3,2.3,24.2,6.8c5.8,4.6,8.8,11,8.8,19.3c0,5.9-1.5,10.8-4.6,14.8c-3.1,3.9-7.2,6.6-12.3,8.1
			C1055.8,1241.5,1060.4,1244.5,1063.9,1249z M1013.6,1231.2h14.1c7,0,10.6-2.9,10.6-8.7c0-6-3.5-9-10.6-9h-14.1V1231.2z
			 M1040.4,1260.5c0-3-0.9-5.4-2.8-7c-1.9-1.6-4.5-2.4-7.9-2.4h-16.1v18.3h16.3C1036.9,1269.3,1040.4,1266.4,1040.4,1260.5z"/>
		<path class="st0" d="M1165.1,1191.3v100.6h-28v-100.6H1165.1z"/>
		<path class="st0" d="M1271.1,1191.3v22.3h-26.8v78.3h-28v-78.3h-26.5v-22.3H1271.1z"/>
	</g>
	<path class="st1" d="M1146.3,889.3c-6.1,29.2-20.5,56.9-43.2,79.5c-59.1,59-156.8,61.3-218.5,5c-67.2-61.3-69-165.6-5.4-229.2
		c22.8-22.8,50.7-37.2,80.1-43.2c18.8-3.8,31.9-20.8,31.9-39.9v-0.1c0-25.5-23.2-45.5-48.2-40.4c-52.3,10.6-101.7,38.8-138.8,84.4
		c-70.6,86.7-71.2,213.5-1.3,300.8c91.2,113.9,258,120.7,358.3,20.4c34.5-34.5,56.3-76.8,65.4-121.2c5.2-25.2-14.6-48.8-40.3-48.8
		l0,0C1167,856.6,1150.3,870.3,1146.3,889.3z"/>
	
		<linearGradient id="SVGID_1_" gradientUnits="userSpaceOnUse" x1="3203.9851" y1="-154.9152" x2="3225.7568" y2="-403.7681" gradientTransform="matrix(0.7071 -0.7071 0.7071 0.7071 -952.7292 3195.3425)">
		<stop  offset="0.1365" style="stop-color:#DB7CEF"/>
		<stop  offset="0.864" style="stop-color:#FFE954"/>
	</linearGradient>
	<path class="st2" d="M1184.5,828.1l0.2,0c25.2-3.9,41.2-29.8,32.5-53.8c-11.6-32-30.3-62-55.9-87.7c-26.1-26.1-56.8-45-89.4-56.6
		c-24.1-8.5-49.9,7.7-53.6,32.9l0,0.2c-2.8,19.2,8,37.9,26.3,44.4c21.5,7.6,41.6,19.9,58.8,37.1c16.8,16.8,29,36.5,36.6,57.4
		C1146.5,820.3,1165.4,831.1,1184.5,828.1z"/>
</g>
</svg>
